<svg width="33" height="24" viewBox="0 0 33 24" fill="none" xmlns="http://www.w3.org/2000/svg">
<path d="M28 3H5C3.89543 3 3 3.89543 3 5V19C3 20.1046 3.89543 21 5 21H28C29.1046 21 30 20.1046 30 19V5C30 3.89543 29.1046 3 28 3Z" fill="#016FD0"/>
<path fill-rule="evenodd" clip-rule="evenodd" d="M29.74 16.35V18.306H27.256L26.338 17.232L25.384 18.306H18.328V12.588H16L18.91 6H21.742L22.426 7.494V6H25.942L26.53 7.566L27.106 6H29.74V6.92999H27.706L26.782 9.36601L26.536 10.026L25.354 6.92999H23.32V11.73L21.208 6.92999H19.57L17.446 11.73H18.838L19.21 10.806H21.538L21.91 11.73H23.32H24.544V8.604L24.538 7.97399L24.778 8.604L25.948 11.73H27.112L28.288 8.604L28.516 7.98V11.73H29.74V13.608L28.384 14.97L29.74 16.35ZM19.312 17.376V12.594H23.32V13.632H20.536V14.472H23.266V15.504H20.536V16.338H23.32V17.376H19.312ZM29.368 17.376H27.778L26.326 15.816L24.868 17.376H23.32L25.558 14.994L23.32 12.594H24.916L26.356 14.148L27.802 12.594H29.368L27.124 14.976L29.368 17.376Z" fill="white"/>
<path d="M20.374 7.95599L20.134 8.55601L19.636 9.76798H21.112L20.614 8.55601L20.374 7.95599Z" fill="white"/>
</svg>
